<svg xmlns="http://www.w3.org/2000/svg" xmlns:xlink="http://www.w3.org/1999/xlink" width="123" height="23.539" viewBox="0 0 123 23.539">
  <defs>
    <clipPath id="clip-path">
      <rect width="123" height="23.539" fill="none"/>
    </clipPath>
  </defs>
  <g id="logo" clip-path="url(#clip-path)">
    <g id="logo-2" data-name="logo">
      <path id="path92289" d="M8052.4-2582.57c0,6.561-5.568,8.679-17.183,8.679-11.666,0-17.193-2.118-17.193-8.679v-14.475h10.446v12.961c0,2.967,1.41,5.477,6.748,5.477s6.737-2.51,6.737-5.477v-12.961H8052.4Z" transform="translate(-8018.028 2597.43)" fill="#0057a6"/>
      <path id="path92316" d="M8253.583-2597.045h16.464l8.316,14.965h.11l8.706-14.965h15.844v22.029H8292.8l.17-16.806h-.11l-10.006,16.806h-9.606l-9.546-16.806h-.12l.23,16.806h-10.227Z" transform="translate(-8216.237 2597.43)" fill="#0057a6"/>
      <path id="path92343" d="M8613.7-2577.13a73.422,73.422,0,0,1-11.625.907c-10.456,0-22.531-3.031-22.531-11.544,0-7.833,9.546-11.734,22.472-11.734a68.52,68.52,0,0,1,11.625,1.161l-.84,4.869a32.979,32.979,0,0,0-10.226-1.582c-7.417,0-12.245,3.091-12.245,7.286,0,4.417,5.447,7.091,13.095,7.091a45.492,45.492,0,0,0,9.766-1.159Z" transform="translate(-8490.702 2599.501)" fill="#0057a6"/>
    </g>
  </g>
</svg>
