<?xml version="1.0" encoding="utf-8"?>
<!-- Generator: Adobe Illustrator 23.0.1, SVG Export Plug-In . SVG Version: 6.00 Build 0)  -->
<svg version="1.0" id="圖層_1" xmlns="http://www.w3.org/2000/svg" xmlns:xlink="http://www.w3.org/1999/xlink" x="0px" y="0px"
	 width="90px" height="90px" viewBox="0 0 90 90" style="enable-background:new 0 0 90 90;" xml:space="preserve">
<style type="text/css">
	.st0{fill:none;}
	.st1{fill:#D4CB93;}
	.st2{fill:#606060;}
</style>
<g>
	<g>
		<path class="st0" d="M60.5,19C60.5,19,60.5,19,60.5,19c0-0.1,0-0.1,0-0.2c0,0,0-0.1,0-0.1c0,0,0,0,0,0c0-0.6-0.1-1.1-0.4-1.4
			c-0.5-0.5-1.3-0.5-1.3-0.4c0,0,0,0,0,0c0,0-0.1,0-0.1,0c-0.5,0-2-0.1-3.2-1.2c-0.6-0.6-1.3-1.6-1.3-3.3c0-0.6-0.1-1.1-0.4-1.3
			c-0.4-0.4-1.1-0.5-1.3-0.5c0,0,0,0,0,0c0,0,0,0,0,0H39.1c0,0,0,0,0,0c0,0,0,0,0,0c-0.2,0-0.9,0.1-1.3,0.5
			c-0.3,0.3-0.4,0.7-0.4,1.3c0,1.7-0.7,2.8-1.3,3.3c-1.2,1.1-2.7,1.2-3.2,1.2c0,0-0.1,0-0.1,0c0,0,0,0,0,0c-0.2,0-0.9,0.1-1.3,0.5
			c-0.3,0.3-0.4,0.7-0.4,1.3c0,0,0,0,0,0c0,0,0,0.1,0,0.1c0,0,0,0.1,0,0.1c0,0,0,0,0,0l-2.2,8.2h33.8L60.5,19z"/>
		<path class="st1" d="M85.1,41.5c0-7.9-6.4-14.3-14.3-14.3h-5.5l-2.1-8.8c-0.1-1.6-0.7-2.6-1.3-3.1c-1.3-1.2-3-1.2-3.3-1.2
			c0,0,0,0,0,0c0,0-0.8,0-1.3-0.4c-0.3-0.3-0.4-0.7-0.4-1.4c0-1.7-0.7-2.8-1.3-3.3c-1.2-1.2-2.9-1.2-3.2-1.2H39.1
			c-0.3,0-2,0-3.2,1.2c-0.6,0.6-1.3,1.6-1.3,3.3c0,0.6-0.1,1.1-0.4,1.3c-0.4,0.4-1.1,0.5-1.3,0.5c0,0,0,0,0,0c-0.3,0-2,0-3.3,1.2
			c-0.6,0.5-1.2,1.5-1.3,3.1l-2.4,8.8h-6.7c-7.9,0-14.3,6.4-14.3,14.3c0,7.5,5.8,13.7,13.2,14.2l-4.1,15c0,0,0,0,0,0.1
			c0,0.1-0.6,2.7,1.1,4.8c1.3,1.6,3.3,2.4,6.2,2.4h5.9c0.1,0.8,0.4,1.7,1.1,2.5c1,1.1,2.5,1.7,4.4,1.7h4.9c0.7,0,1.4-0.6,1.4-1.4
			s-0.6-1.4-1.4-1.4h-4.9c-1.1,0-1.9-0.3-2.4-0.8c-0.7-0.8-0.5-1.9-0.5-1.9c0.1-0.4-0.1-0.8-0.3-1.1c-0.3-0.3-0.6-0.5-1-0.5h-7.2
			c-1.4,0-3.2-0.2-4.1-1.3c-0.8-1-0.6-2.4-0.6-2.5l4.2-15.6h48.5l3.8,15.6c0,0,0.3,1.5-0.6,2.5c-0.9,1.1-2.7,1.3-4.1,1.3h-6.6
			c0,0,0,0,0,0c-0.7,0-1.4,0.6-1.4,1.4c0,0.1,0,0.1,0,0.2c0,0.2-0.1,0.8-0.7,1.3c-0.9,0.9-2.6,1.4-4.9,1.4h-6.3
			c-0.7,0-1.4,0.6-1.4,1.4s0.6,1.4,1.4,1.4h6.3c3.2,0,5.5-0.8,6.9-2.3c0.6-0.7,1-1.4,1.2-2h5.4c2.9,0,5-0.8,6.2-2.4
			c1.7-2.1,1.1-4.7,1.1-4.8l-3.7-15C79.4,54.9,85.1,48.9,85.1,41.5z M30.9,19C30.9,19,30.9,19,30.9,19c0-0.1,0-0.1,0-0.2
			c0,0,0-0.1,0-0.1c0,0,0,0,0,0c0-0.6,0.1-1.1,0.4-1.3c0.4-0.4,1.1-0.5,1.3-0.5c0,0,0,0,0,0c0,0,0.1,0,0.1,0c0.5,0,2-0.1,3.2-1.2
			c0.6-0.6,1.3-1.6,1.3-3.3c0-0.6,0.1-1.1,0.4-1.3c0.4-0.4,1.1-0.5,1.3-0.5c0,0,0,0,0,0c0,0,0,0,0,0h13.3c0,0,0,0,0,0c0,0,0,0,0,0
			c0.2,0,0.9,0.1,1.3,0.5c0.3,0.3,0.4,0.7,0.4,1.3c0,1.7,0.7,2.8,1.3,3.3c1.2,1.1,2.7,1.2,3.2,1.2c0,0,0.1,0,0.1,0c0,0,0,0,0,0
			c0,0,0.8,0,1.3,0.4c0.3,0.3,0.4,0.7,0.4,1.4c0,0,0,0,0,0c0,0,0,0.1,0,0.1c0,0,0,0.1,0,0.1c0,0,0,0,0,0l2,8.2H28.7L30.9,19z
			 M71.6,53c-0.3,0-0.5,0-0.8,0h-2H21.7h-2.5c-0.1,0-0.2,0-0.3,0c-6.2-0.2-11.2-5.3-11.2-11.5c0-6.4,5.2-11.5,11.5-11.5h6H28h35.2
			H66h4.8c6.4,0,11.5,5.2,11.5,11.5C82.4,47.6,77.6,52.6,71.6,53z"/>
	</g>
	<g>
		<path class="st2" d="M23.8,38.9c-0.2-1.4-0.5-2.2-1.1-3c-0.9-1.2-2.1-1.9-3.5-1.9c-1.3,0-2.5,0.7-3.2,1.8
			c-0.8,1.4-1.2,3.2-1.2,5.4c0,4.6,1.9,7.5,4.9,7.5c1.6,0,3-0.8,4.1-2.1c0.4-0.5,0.6-0.9,0.9-1.7l0.6,0.3c-1.1,3-3.1,4.4-6.3,4.4
			c-2,0-3.9-0.7-5.1-2c-1.4-1.4-2.1-3.5-2.1-6c0-5,2.9-8.3,7.3-8.3c1.1,0,1.5,0.1,3.5,0.6c0.3,0.1,0.6,0.1,0.9,0.1
			c0.3,0,0.5,0,1.1-0.3v5.1H23.8z"/>
		<path class="st2" d="M30.2,45.1c0,1.6,0.1,2.3,0.4,2.8c0.3,0.5,0.8,0.7,1.8,0.8v0.5h-5.2v-0.5c1.8-0.1,2.2-0.8,2.2-3.6v-8.8
			c0-1.1-0.1-1.5-0.5-1.8c-0.3-0.2-0.5-0.3-1.4-0.3v-0.5h5l4.6,11.8l4.6-11.8h4.8v0.5c-1.7,0.1-1.8,0.3-1.8,2.2v10.2
			c0,1.9,0.2,2.1,1.9,2.1v0.5h-6.4v-0.5c1.7,0,1.9-0.3,1.9-2.1V35l-5.4,13.8h-1.1l-5.3-13.6V45.1z"/>
		<path class="st2" d="M53.1,46.5c0,1.9,0.2,2.1,2,2.2v0.5h-6.5v-0.5c1.7-0.1,1.9-0.3,1.9-2.2V36.4c0-1.9-0.2-2.1-1.9-2.2v-0.5H60
			l0.3,4.3L59.6,38c-0.5-2.8-1.6-3.8-4.5-3.8h-1.9v6.6h1.6c2.2,0,2.8-0.5,3-2.4h0.7v5.4h-0.7c-0.3-2-0.8-2.4-3-2.4h-1.6V46.5z"/>
		<path class="st2" d="M74.9,38.9c-0.2-1.4-0.5-2.2-1.1-3c-0.9-1.2-2.1-1.9-3.5-1.9c-1.3,0-2.5,0.7-3.2,1.8
			c-0.8,1.4-1.2,3.2-1.2,5.4c0,4.6,1.9,7.5,4.9,7.5c1.6,0,3-0.8,4.1-2.1c0.4-0.5,0.6-0.9,0.9-1.7l0.6,0.3c-1.1,3-3.1,4.4-6.3,4.4
			c-2,0-3.9-0.7-5.1-2c-1.4-1.4-2.1-3.5-2.1-6c0-5,2.9-8.3,7.3-8.3c1.1,0,1.5,0.1,3.5,0.6c0.3,0.1,0.6,0.1,0.9,0.1
			c0.3,0,0.5,0,1.1-0.3v5.1H74.9z"/>
	</g>
</g>
</svg>
